<svg xmlns="http://www.w3.org/2000/svg" xmlns:xlink="http://www.w3.org/1999/xlink" xmlns:lucid="lucid" width="1921" height="1165.2"><g transform="translate(51 -140)" lucid:page-tab-id="0_0"><path d="M0 0h1870.4v1323.2H0z" fill="#fff"/><path d="M360 1012.8v62.6h-.18v62.6" stroke="#0c7cba" stroke-width="4" fill="none"/><path d="M362 1012.86h-4v-2.05h4zM361.82 1140h-4v-2.05h4z" fill="#0c7cba"/><g opacity=".51"><path d="M220 160h1280v578H220z" stroke="#000" stroke-width="2" fill="#d1bcd2"/><use xlink:href="#a" transform="matrix(1,0,0,1,225.00000000000045,165) translate(495.27777777777777 32)"/><use xlink:href="#b" transform="matrix(1,0,0,1,225.00000000000045,165) translate(581.9444444444445 32)"/></g><path d="M530 1100h1320v140H530z" stroke="#000" stroke-width="2" fill="#999"/><use xlink:href="#c" transform="matrix(1,0,0,1,535.0000000000003,1105) translate(655 69.87916666666666)"/><path d="M570 1120h60v40h-60z" stroke="#000" stroke-width="2" fill="#e5e5e5"/><use xlink:href="#d" transform="matrix(1,0,0,1,575.0000000000003,1125) translate(2.0749999999999993 18.15)"/><path d="M570 1180h60v40h-60z" stroke="#000" stroke-width="2" fill="#83bbe5"/><use xlink:href="#e" transform="matrix(1,0,0,1,575.0000000000003,1185) translate(5.049999999999997 18.15)"/><path d="M570 1160h60v20h-60z" stroke="#000" stroke-width="2" fill="#fff"/><path d="M690 1120h60v40h-60z" stroke="#000" stroke-width="2" fill="#e5e5e5"/><use xlink:href="#f" transform="matrix(1,0,0,1,695.0000000000003,1125) translate(20 18.15)"/><path d="M690 1180h60v40h-60z" stroke="#000" stroke-width="2" fill="#e5e5e5"/><use xlink:href="#g" transform="matrix(1,0,0,1,695.0000000000003,1185) translate(20 18.15)"/><path d="M690 1160h60v20h-60z" stroke="#000" stroke-width="2" fill="#fff"/><use xlink:href="#h" transform="matrix(1,0,0,1,695.0000000000003,1165) translate(-1.3703703703703738 10.666666666666668)"/><path d="M750 1120h60v40h-60z" stroke="#000" stroke-width="2" fill="#e5e5e5"/><use xlink:href="#i" transform="matrix(1,0,0,1,755.0000000000005,1125) translate(20 18.15)"/><path d="M750 1180h60v40h-60z" stroke="#000" stroke-width="2" fill="#e5e5e5"/><use xlink:href="#j" transform="matrix(1,0,0,1,755.0000000000005,1185) translate(20 18.15)"/><path d="M750 1160h60v20h-60z" stroke="#000" stroke-width="2" fill="#fff"/><use xlink:href="#h" transform="matrix(1,0,0,1,755.0000000000005,1165) translate(-1.3703703703703738 10.666666666666668)"/><path d="M742 1259h36v-15.26h4V1263h-44v-173.2h4zm40-162.74h-4v-6.46h4zM780 1112.53l-4.64-14.27h9.28z"/><path d="M780 1119l-7.4-22.74h14.8zm-1.88-18.74l1.88 5.8 1.88-5.8zM784.64 1241.74h-9.28l4.64-14.27z"/><path d="M787.4 1243.74h-14.8L780 1221zm-9.28-4h3.76l-1.88-5.8z"/><use xlink:href="#k" transform="matrix(1,0,0,1,722.5873247079018,1068.2) translate(0 14.4)"/><path d="M532.67 1238.98V1104.3H574V1239z" fill="none"/><use xlink:href="#l" transform="matrix(6.123233995736766e-17,-1,1,6.123233995736766e-17,532.6666666667056,1238.976010601929) translate(24.938271604938272 25.444444444444443)"/><path d="M650 1160h20v60h-20zM830 1120h60v40h-60z" stroke="#000" stroke-width="2" fill="#e5e5e5"/><use xlink:href="#m" transform="matrix(1,0,0,1,835.0000000000005,1125) translate(20 18.15)"/><path d="M830 1180h60v40h-60z" stroke="#000" stroke-width="2" fill="#e5e5e5"/><use xlink:href="#n" transform="matrix(1,0,0,1,835.0000000000005,1185) translate(20 18.15)"/><path d="M830 1160h60v20h-60z" stroke="#000" stroke-width="2" fill="#fff"/><use xlink:href="#h" transform="matrix(1,0,0,1,835.0000000000005,1165) translate(-1.3703703703703738 10.666666666666668)"/><path d="M890 1120h60v40h-60z" stroke="#000" stroke-width="2" fill="#e5e5e5"/><use xlink:href="#o" transform="matrix(1,0,0,1,895.0000000000005,1125) translate(20 18.15)"/><path d="M890 1180h60v40h-60z" stroke="#000" stroke-width="2" fill="#e5e5e5"/><use xlink:href="#p" transform="matrix(1,0,0,1,895.0000000000005,1185) translate(20 18.15)"/><path d="M890 1160h60v20h-60z" stroke="#000" stroke-width="2" fill="#fff"/><use xlink:href="#h" transform="matrix(1,0,0,1,895.0000000000005,1165) translate(-1.3703703703703738 10.666666666666668)"/><path d="M970 1120h60v40h-60z" stroke="#000" stroke-width="2" fill="#e5e5e5"/><use xlink:href="#q" transform="matrix(1,0,0,1,975.0000000000005,1125) translate(20 18.15)"/><path d="M970 1180h60v40h-60z" stroke="#000" stroke-width="2" fill="#e5e5e5"/><use xlink:href="#r" transform="matrix(1,0,0,1,975.0000000000005,1185) translate(15 18.15)"/><path d="M970 1160h60v20h-60z" stroke="#000" stroke-width="2" fill="#fff"/><use xlink:href="#h" transform="matrix(1,0,0,1,975.0000000000005,1165) translate(-1.3703703703703738 10.666666666666668)"/><path d="M1030 1120h60v40h-60z" stroke="#000" stroke-width="2" fill="#e5e5e5"/><use xlink:href="#s" transform="matrix(1,0,0,1,1035.0000000000005,1125) translate(15.675 18.15)"/><path d="M1030 1180h60v40h-60z" stroke="#000" stroke-width="2" fill="#e5e5e5"/><use xlink:href="#t" transform="matrix(1,0,0,1,1035.0000000000005,1185) translate(15 18.15)"/><path d="M1030 1160h60v20h-60z" stroke="#000" stroke-width="2" fill="#fff"/><use xlink:href="#h" transform="matrix(1,0,0,1,1035.0000000000005,1165) translate(-1.3703703703703738 10.666666666666668)"/><path d="M1110 1120h60v40h-60z" stroke="#000" stroke-width="2" fill="#e5e5e5"/><use xlink:href="#u" transform="matrix(1,0,0,1,1115.0000000000005,1125) translate(15 18.15)"/><path d="M1110 1180h60v40h-60z" stroke="#000" stroke-width="2" fill="#e5e5e5"/><use xlink:href="#v" transform="matrix(1,0,0,1,1115.0000000000005,1185) translate(15 18.15)"/><path d="M1110 1160h60v20h-60z" stroke="#000" stroke-width="2" fill="#fff"/><use xlink:href="#h" transform="matrix(1,0,0,1,1115.0000000000005,1165) translate(-1.3703703703703738 10.666666666666668)"/><path d="M1170 1120h60v40h-60z" stroke="#000" stroke-width="2" fill="#e5e5e5"/><use xlink:href="#w" transform="matrix(1,0,0,1,1175.0000000000005,1125) translate(15 18.15)"/><path d="M1170 1180h60v40h-60z" stroke="#000" stroke-width="2" fill="#e5e5e5"/><use xlink:href="#x" transform="matrix(1,0,0,1,1175.0000000000005,1185) translate(15 18.15)"/><path d="M1170 1160h60v20h-60z" stroke="#000" stroke-width="2" fill="#fff"/><use xlink:href="#h" transform="matrix(1,0,0,1,1175.0000000000005,1165) translate(-1.3703703703703738 10.666666666666668)"/><path d="M1250 1120h60v40h-60z" stroke="#000" stroke-width="2" fill="#e5e5e5"/><use xlink:href="#y" transform="matrix(1,0,0,1,1255.0000000000002,1125) translate(15 18.15)"/><path d="M1250 1180h60v40h-60z" stroke="#000" stroke-width="2" fill="#e5e5e5"/><use xlink:href="#z" transform="matrix(1,0,0,1,1255.0000000000002,1185) translate(15 18.15)"/><path d="M1250 1160h60v20h-60z" stroke="#000" stroke-width="2" fill="#fff"/><use xlink:href="#h" transform="matrix(1,0,0,1,1255.0000000000002,1165) translate(-1.3703703703703738 10.666666666666668)"/><path d="M1310 1120h60v40h-60z" stroke="#000" stroke-width="2" fill="#e5e5e5"/><use xlink:href="#A" transform="matrix(1,0,0,1,1315.0000000000002,1125) translate(15 18.15)"/><path d="M1310 1180h60v40h-60z" stroke="#000" stroke-width="2" fill="#e5e5e5"/><use xlink:href="#B" transform="matrix(1,0,0,1,1315.0000000000002,1185) translate(15 18.15)"/><path d="M1310 1160h60v20h-60z" stroke="#000" stroke-width="2" fill="#fff"/><use xlink:href="#h" transform="matrix(1,0,0,1,1315.0000000000002,1165) translate(-1.3703703703703738 10.666666666666668)"/><path d="M1390 1120h60v40h-60z" stroke="#000" stroke-width="2" fill="#e5e5e5"/><use xlink:href="#C" transform="matrix(1,0,0,1,1395.0000000000005,1125) translate(15 18.15)"/><path d="M1390 1180h60v40h-60z" stroke="#000" stroke-width="2" fill="#e5e5e5"/><use xlink:href="#D" transform="matrix(1,0,0,1,1395.0000000000005,1185) translate(15 18.15)"/><path d="M1390 1160h60v20h-60z" stroke="#000" stroke-width="2" fill="#fff"/><use xlink:href="#h" transform="matrix(1,0,0,1,1395.0000000000005,1165) translate(-1.3703703703703738 10.666666666666668)"/><path d="M1450 1120h60v40h-60z" stroke="#000" stroke-width="2" fill="#e5e5e5"/><use xlink:href="#E" transform="matrix(1,0,0,1,1455.0000000000007,1125) translate(15 18.15)"/><path d="M1450 1180h60v40h-60z" stroke="#000" stroke-width="2" fill="#e5e5e5"/><use xlink:href="#F" transform="matrix(1,0,0,1,1455.0000000000007,1185) translate(15 18.15)"/><path d="M1450 1160h60v20h-60z" stroke="#000" stroke-width="2" fill="#fff"/><use xlink:href="#h" transform="matrix(1,0,0,1,1455.0000000000007,1165) translate(-1.3703703703703738 10.666666666666668)"/><path d="M1530 1120h60v40h-60z" stroke="#000" stroke-width="2" fill="#e5e5e5"/><use xlink:href="#G" transform="matrix(1,0,0,1,1535.0000000000005,1125) translate(15 18.15)"/><path d="M1530 1180h60v40h-60z" stroke="#000" stroke-width="2" fill="#e5e5e5"/><use xlink:href="#H" transform="matrix(1,0,0,1,1535.0000000000005,1185) translate(15 18.15)"/><path d="M1530 1160h60v20h-60z" stroke="#000" stroke-width="2" fill="#fff"/><use xlink:href="#h" transform="matrix(1,0,0,1,1535.0000000000005,1165) translate(-1.3703703703703738 10.666666666666668)"/><path d="M1590 1120h60v40h-60z" stroke="#000" stroke-width="2" fill="#e5e5e5"/><use xlink:href="#I" transform="matrix(1,0,0,1,1595.0000000000005,1125) translate(15 18.15)"/><path d="M1590 1180h60v40h-60z" stroke="#000" stroke-width="2" fill="#e5e5e5"/><use xlink:href="#J" transform="matrix(1,0,0,1,1595.0000000000005,1185) translate(15 18.15)"/><path d="M1590 1160h60v20h-60z" stroke="#000" stroke-width="2" fill="#fff"/><use xlink:href="#h" transform="matrix(1,0,0,1,1595.0000000000005,1165) translate(-1.3703703703703738 10.666666666666668)"/><path d="M1670 1120h60v40h-60z" stroke="#000" stroke-width="2" fill="#e5e5e5"/><use xlink:href="#K" transform="matrix(1,0,0,1,1675.0000000000005,1125) translate(15 18.15)"/><path d="M1670 1180h60v40h-60z" stroke="#000" stroke-width="2" fill="#e5e5e5"/><use xlink:href="#L" transform="matrix(1,0,0,1,1675.0000000000005,1185) translate(15 18.15)"/><path d="M1670 1160h60v20h-60z" stroke="#000" stroke-width="2" fill="#fff"/><use xlink:href="#h" transform="matrix(1,0,0,1,1675.0000000000005,1165) translate(-1.3703703703703738 10.666666666666668)"/><path d="M1730 1120h60v40h-60z" stroke="#000" stroke-width="2" fill="#e5e5e5"/><use xlink:href="#M" transform="matrix(1,0,0,1,1735.0000000000005,1125) translate(15 18.15)"/><path d="M1730 1180h60v40h-60z" stroke="#000" stroke-width="2" fill="#e5e5e5"/><use xlink:href="#N" transform="matrix(1,0,0,1,1735.0000000000005,1185) translate(15 18.15)"/><path d="M1730 1160h60v20h-60z" stroke="#000" stroke-width="2" fill="#fff"/><use xlink:href="#h" transform="matrix(1,0,0,1,1735.0000000000005,1165) translate(-1.3703703703703738 10.666666666666668)"/><path d="M302.15 1140H420.2c9.15 0 9.15 0 9.15 10.08v65.76c0 10.08 0 10.08-9.15 10.08H302.15c-9.15 0-9.15 0-9.15-10.08v-65.76c0-10.08 0-10.08 9.15-10.08z" fill="#29aae1"/><path d="M302.15 1148.4h118.8v66.6h-118.8v-66.6z" fill="#fff"/><path d="M303.65 1150.92h115.8v61.56h-115.8v-61.56z" fill="gray"/><path d="M287 1245.72h149.85V1260H287v-14.28z" fill="#29aae1"/><path d="M327.95 1229.04H431.6l5.25 16.92H333.2l-5.25-16.92z" fill="#29aae1"/><path d="M394.55 1229.04h-102.3l-5.25 16.8h102.3l5.25-16.8z" fill="#29aae1"/><path d="M335.9 1232.28h89.7l3.6 11.28h-89.7l-3.6-11.28z" fill="#fff"/><path d="M372.8 1232.28h-75.3l-3 11.28h75.3l3-11.28z" fill="#fff"/><use xlink:href="#O" transform="matrix(1,0,0,1,257,1260) translate(47.55 18.6)"/><use xlink:href="#P" transform="matrix(1,0,0,1,257,1260) translate(107.55 18.6)"/><path d="M1375.2 374.55h69.2v121.3h-69.2v-121.3z" fill="#29aae1"/><path d="M1401.6 458.8h35.2c1.12 0 1.12 0 1.12 1.16 0 1.04 0 1.04-1.12 1.04h-35.2c-1.12 0-1.12 0-1.12-1.04 0-1.17 0-1.17 1.12-1.17zM1401.68 464.9h35.12c1.52 0 1.52 0 1.52 1.56v.4c0 1.55 0 1.55-1.52 1.55h-35.12c-1.52 0-1.52 0-1.52-1.55v-.4c0-1.55 0-1.55 1.52-1.55zM1401.84 472.57h35.12c1.52 0 1.52 0 1.52 1.56v.4c0 1.55 0 1.55-1.52 1.55h-35.12c-1.52 0-1.52 0-1.52-1.56v-.4c0-1.55 0-1.55 1.52-1.55zM1433.92 433.44c0 3.12-2.56 5.72-5.76 5.72-3.12 0-5.68-2.6-5.68-5.72 0-3.12 2.56-5.72 5.68-5.72 3.2 0 5.76 2.6 5.76 5.72z" fill="#fff"/><path d="M1431.6 433.44c0 1.95-1.6 3.5-3.52 3.5s-3.52-1.55-3.52-3.5 1.6-3.5 3.52-3.5 3.52 1.55 3.52 3.5z" fill="#54bbe7"/><path d="M1376.48 370h27.84v1.95h-27.84V370zM1408.16 370H1436v2.08h-27.84V370zM1439.76 370.13h9.92v1.95h-9.92v-1.95z" fill="gray"/><path d="M1447.52 371.95h2.16v12.74h-2.16v-12.75zM1447.6 388.07h2.16v26h-2.16v-26zM1447.6 418.5h2.24v26h-2.24v-26zM1447.68 448.13h2.24v26h-2.24v-26zM1447.68 478.42h2.24V500h-2.24v-21.58z" fill="gray"/><path d="M1439.76 498.05h9.92V500h-9.92v-1.95zM1407.44 498.05h27.84V500h-27.84v-1.95zM1371.84 497.92h30.56V500h-30.56v-2.08zM1370.08 370h2.24v26.13h-2.24V370zM1370 400.3h2.24v26.12H1370V400.3zM1370 430.32h2.24v26H1370v-26zM1370 459.83h2.24v26.13H1370v-26.13z" fill="gray"/><path d="M1370.16 490h2.24v10h-2.24v-10z" fill="gray"/><use xlink:href="#Q" transform="matrix(1,0,0,1,1340.0000000000002,500) translate(15.599999999999994 18.6)"/><path d="M862 918v199h-4V922h-1.1v-4zm-91.88 0v4H638V703h4v215z" fill="#c92d39"/><path d="M642 703.05h-4V701h4zM862 1119h-4v-2.05h4z" fill="#c92d39"/><use xlink:href="#R" transform="matrix(1,0,0,1,770.123622333973,905.3333333333334) translate(0 19.555555555555557)"/><path d="M700 703v217h-15.55" stroke="#c92d39" stroke-width="4" fill="none"/><path d="M702 703.05h-4V701h4z" fill="#c92d39"/><path d="M684.5 920h-2.05" stroke="#c92d39" stroke-width="4" fill="none"/><path d="M762 899.9l.08 18.1h-4l-.08-18.08V703h4z" fill="#c92d39"/><path d="M762 703.05h-4V701h4zM762.08 920h-4v-2.05h4z" fill="#c92d39"/><path d="M864.07 993.03l2.9 2.9.56 2.07H918v4h-53.53l-1.08-4-1.4-1.4-2-.53-2 .54-1.4 1.4-1.07 4H812v196h15v4h-19V998h44.47l.56-2.07 2.9-2.9 4.07-1.1zM1022 1002h-30v-4h26V703h4z" fill="#7ab648"/><path d="M1022 703.05h-4V701h4zM829 1202h-2.05v-4H829z" fill="#7ab648"/><use xlink:href="#S" transform="matrix(1,0,0,1,917.9938271604941,986.6666666666666) translate(0 17.77777777777778)"/><path d="M918 1002h-17.22v-4h17.2zm164 0h-90v-4h86V703h4z" fill="#7ab648"/><path d="M1082 703.05h-4V701h4zM900.84 1002h-2.06v-4h2.06z" fill="#7ab648"/><path d="M820.7 905.33h-4V703h4z" fill="#fcc438"/><path d="M820.7 703.05h-4V701h4z" fill="#fcc438"/><path fill="#fcc438"/><path d="M1142 1002H992v-4h146V703h4z" fill="#7ab648"/><path d="M1142 703.05h-4V701h4z" fill="#7ab648"/><path fill="#7ab648"/><path d="M1163.2 422.8h42.58v74.64h-42.58V422.8z" fill="#29aae1"/><path d="M1179.45 474.64h21.66c.7 0 .7 0 .7.72 0 .64 0 .64-.7.64h-21.65c-.7 0-.7 0-.7-.64 0-.72 0-.72.7-.72zM1179.5 478.4h21.6c.94 0 .94 0 .94.96v.24c0 .96 0 .96-.93.96h-21.6c-.94 0-.94 0-.94-.96v-.24c0-.96 0-.96.94-.96zM1179.6 483.12h21.6c.94 0 .94 0 .94.96v.24c0 .96 0 .96-.93.96h-21.6c-.94 0-.94 0-.94-.96v-.24c0-.96 0-.96.93-.96zM1199.34 459.04c0 1.92-1.58 3.52-3.55 3.52-1.93 0-3.5-1.6-3.5-3.52s1.57-3.52 3.5-3.52c1.96 0 3.54 1.6 3.54 3.52z" fill="#fff"/><path d="M1197.9 459.04c0 1.2-.98 2.16-2.16 2.16-1.18 0-2.16-.96-2.16-2.16 0-1.2.98-2.16 2.16-2.16 1.18 0 2.17.96 2.17 2.16z" fill="#54bbe7"/><path d="M1164 420h17.12v1.2H1164V420zM1183.48 420h17.14v1.28h-17.14V420zM1202.93 420.08h6.1v1.2h-6.1v-1.2z" fill="gray"/><path d="M1207.7 421.2h1.33v7.84h-1.33v-7.84zM1207.75 431.12h1.33v16h-1.33v-16zM1207.75 449.84h1.38v16h-1.38v-16zM1207.8 468.08h1.38v16h-1.38v-16zM1207.8 486.72h1.38V500h-1.38v-13.28z" fill="gray"/><path d="M1202.93 498.8h6.1v1.2h-6.1v-1.2zM1183.04 498.8h17.13v1.2h-17.13v-1.2zM1161.13 498.72h18.8V500h-18.8v-1.28zM1160.05 420h1.38v16.08h-1.38V420zM1160 438.64h1.38v16.08H1160v-16.08zM1160 457.12h1.38v16H1160v-16zM1160 475.28h1.38v16.08H1160v-16.08z" fill="gray"/><path d="M1160.1 493.84h1.38V500h-1.38v-6.16z" fill="gray"/><use xlink:href="#T" transform="matrix(1,0,0,1,1130,500) translate(35.55 18.6)"/><path d="M563.2 422.8h42.58v74.64H563.2V422.8z" fill="#29aae1"/><path d="M579.45 474.64h21.66c.7 0 .7 0 .7.72 0 .64 0 .64-.7.64h-21.65c-.7 0-.7 0-.7-.64 0-.72 0-.72.7-.72zM579.5 478.4h21.6c.94 0 .94 0 .94.96v.24c0 .96 0 .96-.93.96h-21.6c-.94 0-.94 0-.94-.96v-.24c0-.96 0-.96.94-.96zM579.6 483.12h21.6c.94 0 .94 0 .94.96v.24c0 .96 0 .96-.93.96h-21.6c-.94 0-.94 0-.94-.96v-.24c0-.96 0-.96.93-.96zM599.34 459.04c0 1.92-1.58 3.52-3.55 3.52-1.93 0-3.5-1.6-3.5-3.52s1.57-3.52 3.5-3.52c1.96 0 3.54 1.6 3.54 3.52z" fill="#fff"/><path d="M597.9 459.04c0 1.2-.98 2.16-2.16 2.16-1.18 0-2.16-.96-2.16-2.16 0-1.2.98-2.16 2.16-2.16 1.18 0 2.17.96 2.17 2.16z" fill="#54bbe7"/><path d="M564 420h17.12v1.2H564V420zM583.48 420h17.14v1.28h-17.14V420zM602.93 420.08h6.1v1.2h-6.1v-1.2z" fill="gray"/><path d="M607.7 421.2h1.33v7.84h-1.33v-7.84zM607.75 431.12h1.33v16h-1.33v-16zM607.75 449.84h1.38v16h-1.38v-16zM607.8 468.08h1.38v16h-1.38v-16zM607.8 486.72h1.38V500h-1.38v-13.28z" fill="gray"/><path d="M602.93 498.8h6.1v1.2h-6.1v-1.2zM583.04 498.8h17.13v1.2h-17.13v-1.2zM561.13 498.72h18.8V500h-18.8v-1.28zM560.05 420h1.38v16.08h-1.38V420zM560 438.64h1.38v16.08H560v-16.08zM560 457.12h1.38v16H560v-16zM560 475.28h1.38v16.08H560v-16.08z" fill="gray"/><path d="M560.1 493.84h1.38V500h-1.38v-6.16z" fill="gray"/><use xlink:href="#U" transform="matrix(1,0,0,1,530.0000000000001,500) translate(35.575 18.6)"/><path d="M823.2 422.8h42.58v74.64H823.2V422.8z" fill="#29aae1"/><path d="M839.45 474.64h21.66c.7 0 .7 0 .7.72 0 .64 0 .64-.7.64h-21.65c-.7 0-.7 0-.7-.64 0-.72 0-.72.7-.72zM839.5 478.4h21.6c.94 0 .94 0 .94.96v.24c0 .96 0 .96-.93.96h-21.6c-.94 0-.94 0-.94-.96v-.24c0-.96 0-.96.94-.96zM839.6 483.12h21.6c.94 0 .94 0 .94.96v.24c0 .96 0 .96-.93.96h-21.6c-.94 0-.94 0-.94-.96v-.24c0-.96 0-.96.93-.96zM859.34 459.04c0 1.92-1.58 3.52-3.55 3.52-1.93 0-3.5-1.6-3.5-3.52s1.57-3.52 3.5-3.52c1.96 0 3.54 1.6 3.54 3.52z" fill="#fff"/><path d="M857.9 459.04c0 1.2-.98 2.16-2.16 2.16-1.18 0-2.16-.96-2.16-2.16 0-1.2.98-2.16 2.16-2.16 1.18 0 2.17.96 2.17 2.16z" fill="#54bbe7"/><path d="M824 420h17.12v1.2H824V420zM843.48 420h17.14v1.28h-17.14V420zM862.93 420.08h6.1v1.2h-6.1v-1.2z" fill="gray"/><path d="M867.7 421.2h1.33v7.84h-1.33v-7.84zM867.75 431.12h1.33v16h-1.33v-16zM867.75 449.84h1.38v16h-1.38v-16zM867.8 468.08h1.38v16h-1.38v-16zM867.8 486.72h1.38V500h-1.38v-13.28z" fill="gray"/><path d="M862.93 498.8h6.1v1.2h-6.1v-1.2zM843.04 498.8h17.13v1.2h-17.13v-1.2zM821.13 498.72h18.8V500h-18.8v-1.28zM820.05 420h1.38v16.08h-1.38V420zM820 438.64h1.38v16.08H820v-16.08zM820 457.12h1.38v16H820v-16zM820 475.28h1.38v16.08H820v-16.08z" fill="gray"/><path d="M820.1 493.84h1.38V500h-1.38v-6.16z" fill="gray"/><use xlink:href="#V" transform="matrix(1,0,0,1,790,500) translate(19.575000000000003 18.6)"/><path d="M923.97 502.8h42.58v74.64h-42.58V502.8z" fill="#29aae1"/><path d="M940.22 554.64h21.66c.7 0 .7 0 .7.72 0 .64 0 .64-.7.64h-21.66c-.7 0-.7 0-.7-.64 0-.72 0-.72.7-.72zM940.26 558.4h21.62c.93 0 .93 0 .93.96v.24c0 .96 0 .96-.92.96h-21.62c-.93 0-.93 0-.93-.96v-.24c0-.96 0-.96.93-.96zM940.36 563.12h21.62c.93 0 .93 0 .93.96v.24c0 .96 0 .96-.92.96h-21.62c-.93 0-.93 0-.93-.96v-.24c0-.96 0-.96.93-.96zM960.1 539.04c0 1.92-1.57 3.52-3.54 3.52-1.92 0-3.5-1.6-3.5-3.52s1.58-3.52 3.5-3.52c1.97 0 3.54 1.6 3.54 3.52z" fill="#fff"/><path d="M958.68 539.04c0 1.2-1 2.16-2.17 2.16s-2.16-.96-2.16-2.16c0-1.2 1-2.16 2.17-2.16 1.2 0 2.18.96 2.18 2.16z" fill="#54bbe7"/><path d="M924.76 500h17.13v1.2h-17.14V500zM944.25 500h17.13v1.28h-17.13V500zM963.7 500.08h6.1v1.2h-6.1v-1.2z" fill="gray"/><path d="M968.47 501.2h1.33v7.84h-1.33v-7.84zM968.52 511.12h1.33v16h-1.33v-16zM968.52 529.84h1.38v16h-1.38v-16zM968.57 548.08h1.38v16h-1.38v-16zM968.57 566.72h1.38V580h-1.38v-13.28z" fill="gray"/><path d="M963.7 578.8h6.1v1.2h-6.1v-1.2zM943.8 578.8h17.14v1.2H943.8v-1.2zM921.9 578.72h18.8V580h-18.8v-1.28zM920.82 500h1.38v16.08h-1.38V500zM920.77 518.64h1.38v16.08h-1.38v-16.08zM920.77 537.12h1.38v16h-1.38v-16zM920.77 555.28h1.38v16.08h-1.38v-16.08z" fill="gray"/><path d="M920.87 573.84h1.38V580h-1.38v-6.16z" fill="gray"/><use xlink:href="#W" transform="matrix(1,0,0,1,890.7692307692312,580) translate(19.575000000000003 18.6)"/><path d="M640 657V460h-28.87" stroke="#c92d39" stroke-width="4" fill="none"/><path d="M642 659h-4v-2.05h4zM607.75 462h-1.62v-4h1.62zm3.43 0h-2.05v-4h2.05z" fill="#c92d39"/><path d="M700 657V460h118" stroke="#c92d39" stroke-width="4" fill="none"/><path d="M702 659h-4v-2.05h4zM820 462h-2.05v-4H820zm3 0h-1.62v-4H823z" fill="#c92d39"/><path d="M760 657.5V540h159.27" stroke="#c92d39" stroke-width="3" fill="none"/><path d="M761.5 659h-3v-1.54h3zM920.77 541.5h-1.54v-3h1.54zm3 0h-1.62v-3h1.62z" fill="#c92d39"/><path d="M1088.9 657V540h-117" stroke="#7ab648" stroke-width="4" fill="none"/><path d="M1090.9 659h-4v-2.05h4zM968.52 542h-1.62v-4h1.62zm3.43 0h-2.05v-4h2.05z" fill="#7ab648"/><path d="M1020 657V546c-3.3 0-6-2.7-6-6s2.7-6 6-6v-74H871.13" stroke="#7ab648" stroke-width="4" fill="none"/><path d="M1022 659h-4v-2.05h4zM867.75 462h-1.62v-4h1.62zm3.43 0h-2.05v-4h2.05z" fill="#7ab648"/><path d="M610 660h60v40h-60z" stroke="#000" stroke-width="2" fill="#e5e5e5"/><use xlink:href="#X" transform="matrix(1,0,0,1,615,665) translate(11.024999999999999 18.15)"/><path d="M670 660h60v40h-60z" stroke="#000" stroke-width="2" fill="#e5e5e5"/><use xlink:href="#Y" transform="matrix(1,0,0,1,675,665) translate(11.024999999999999 18.15)"/><path d="M730 660h60v40h-60z" stroke="#000" stroke-width="2" fill="#e5e5e5"/><use xlink:href="#Z" transform="matrix(1,0,0,1,735.0000000000005,665) translate(11.024999999999999 18.15)"/><path d="M790 660h60v40h-60z" stroke="#000" stroke-width="2" fill="#e5e5e5"/><use xlink:href="#aa" transform="matrix(1,0,0,1,795.0000000000005,665) translate(11.024999999999999 18.15)"/><path d="M990 660h60v40h-60z" stroke="#000" stroke-width="2" fill="#e5e5e5"/><use xlink:href="#ab" transform="matrix(1,0,0,1,995.0000000000009,665) translate(1.0499999999999972 18.15)"/><path d="M1050 660h60v40h-60z" stroke="#000" stroke-width="2" fill="#e5e5e5"/><use xlink:href="#ac" transform="matrix(1,0,0,1,1055.000000000001,665) translate(1.0499999999999972 18.15)"/><path d="M1110 660h60v40h-60z" stroke="#000" stroke-width="2" fill="#e5e5e5"/><use xlink:href="#ad" transform="matrix(1,0,0,1,1115.000000000001,665) translate(1.0499999999999972 18.15)"/><path d="M1170 660h60v40h-60z" stroke="#000" stroke-width="2" fill="#e5e5e5"/><use xlink:href="#ae" transform="matrix(1,0,0,1,1175.0000000000005,665) translate(1.0499999999999972 18.15)"/><path d="M1158 460h-18v197" stroke="#7ab648" stroke-width="4" fill="none"/><path d="M1160 462h-2.05v-4h2.05zm3 0h-1.62v-4h1.62zM1142 659h-4v-2.05h4z" fill="#7ab648"/><path d="M922.82 281.33h533.44v4H918.82v-.1H818.57v-4h104.25zm-537.45 3.9v-4H627.9v4z" fill="#0c7cba"/><path d="M385.43 285.22h-2.06v-4h2.06zM1458.26 285.33h-2.05v-4h2.06z" fill="#0c7cba"/><use xlink:href="#af" transform="matrix(1,0,0,1,627.9024246436144,271.21540019809555) translate(0 16)"/><use xlink:href="#ag" transform="matrix(1,0,0,1,627.9024246436144,271.21540019809555) translate(127.5 16)"/><path d="M436.5 288.34V657M436.5 288.4v-2.06" stroke="#0c7cba" stroke-width="4" fill="none"/><path d="M438.5 659h-4v-2.05h4zM839.68 282.5l.1-.05.12.25 1.5.62V420.8h-4V286l-.56-.23-1.06-2.55 1.06-2.55 1.78-.74z" fill="#0c7cba"/><path d="M841.4 281.83h-4v-2.06h4zM841.4 425.8h-4v-3h4zm-.28-4.6h-3.73v-.45h3.72z" fill="#0c7cba"/><path d="M574.96 289.27V420.8M574.96 289.32v-2.05" stroke="#0c7cba" stroke-width="4" fill="none"/><path d="M576.96 425.8h-4v-3h4zm0-4.6h-4v-.45h4z" fill="#0c7cba"/><path d="M942.2 289.27V454c-3.3 0-6 2.7-6 6s2.7 6 6 6v34.8M942.2 289.32v-2.05" stroke="#0c7cba" stroke-width="4" fill="none"/><path d="M944.2 502.8h-4v-1.6h1.7v-.45h2.3z" fill="#0c7cba"/><path d="M1173.5 284.58V420.8M1173.5 284.63v-2.05" stroke="#0c7cba" stroke-width="4" fill="none"/><path d="M1175.5 425.8h-4v-3h4zm0-4.6h-4v-.45h4z" fill="#0c7cba"/><path d="M1406.97 283.5v23.28h-.63v65.77M1406.97 283.55v-2.06" stroke="#0c7cba" stroke-width="4" fill="none"/><path d="M1408.34 374.55h-4v-2.05h4z" fill="#0c7cba"/><path d="M240 922.1h239.76v74.5H240v-74.5z" fill="#29aae1"/><path d="M251.52 1005.05h216.72v5.76H251.52v-5.75z" fill="#2188b4"/><path d="M251.28 950.52h22.32v9.4h-22.32v-9.4z" fill="#fff"/><path d="M262.08 956.86c5.28 0 5.28 0 5.28 5.37v.96c0 5.18 0 5.18-5.28 5.18s-5.28 0-5.28-5.2v-.95c0-5.37 0-5.37 5.28-5.37zM285.6 950.52h22.32v9.4H285.6v-9.4z" fill="#fff"/><path d="M296.4 956.86c5.28 0 5.28 0 5.28 5.37v.96c0 5.18 0 5.18-5.28 5.18s-5.28 0-5.28-5.2v-.95c0-5.37 0-5.37 5.28-5.37zM321.84 950.52h22.32v9.4h-22.32v-9.4z" fill="#fff"/><path d="M332.64 956.86c5.28 0 5.28 0 5.28 5.37v.96c0 5.18 0 5.18-5.28 5.18s-5.28 0-5.28-5.2v-.95c0-5.37 0-5.37 5.28-5.37zM357.12 950.52h22.32v9.4h-22.32v-9.4z" fill="#fff"/><path d="M367.92 956.86c5.28 0 5.28 0 5.28 5.37v.96c0 5.18 0 5.18-5.28 5.18s-5.28 0-5.28-5.2v-.95c0-5.37 0-5.37 5.28-5.37z" fill="#fff"/><path d="M455.76 873.34c9.12 1.72 9.12 1.72 7.44 10.56l-8.64 43.96c-1.68 9.03-1.68 9.03-10.8 7.3-8.88-1.73-8.88-1.73-7.2-10.56l8.4-44.16c1.92-8.83 1.92-8.83 10.8-7.1z" fill="#29aae1"/><path d="M465.36 824.57c5.52 1.15 5.52 1.15 4.56 6.53l-9.12 45.88c-.96 5.38-.96 5.38-6.48 4.42-5.76-1.15-5.76-1.15-4.56-6.53l8.88-45.9c.96-5.36.96-5.36 6.72-4.4z" fill="#29aae1"/><path d="M407.28 927.86h64.32v60.68h-64.32v-60.68z" fill="#fff"/><path d="M409.44 929.98h59.76v56.25h-59.76v-56.25z" fill="#54bbe7"/><path d="M438.24 932.66l-7.2 7.5h3.84l.24 10.36h7.44l-.72-10.37h3.84l-7.44-7.5zM439.44 981.82l7.2-7.1-3.6-.2-.24-10.37-7.44-.2.72 10.38H432l7.44 7.5zM442.08 957.82l7.2 7.48.24-3.64h10.32l.48-7.3-10.56.38v-2.68l.24-1.16-7.92 6.92zM435.84 957.82l-7.2-7.3-.24 3.65-10.32-.2-.48 7.3 10.56-.38v2.87l-.24 1.15 7.92-7.1z" fill="#fff"/><path d="M263.52 869.5c8.88-1.73 8.88-1.73 10.56 7.1l8.64 43.97c1.92 9.02 1.92 9.02-7.2 10.75-9.12 1.73-9.12 1.73-10.8-7.3l-8.64-43.96c-1.68-8.84-1.68-8.84 7.44-10.56z" fill="#29aae1"/><path d="M253.92 820.73c5.52-1.15 5.52-1.15 6.72 4.4l8.88 45.9c.96 5.38.96 5.38-4.56 6.53-5.52.96-5.52.96-6.48-4.42l-9.12-45.88c-.96-5.57-.96-5.57 4.56-6.53z" fill="#29aae1"/><use xlink:href="#ah" transform="matrix(1,0,0,1,210,1011) translate(107.18518518518519 21.333333333333336)"/><path d="M440 703v107h-80v110.1" stroke="#0c7cba" stroke-width="4" fill="none"/><path d="M442 703.05h-4V701h4zM362 922.1h-4v-2.05h4z" fill="#0c7cba"/><path d="M567 1200h-42.62V962.9h-42.62" stroke="#0c7cba" stroke-width="4" fill="none"/><path d="M569 1202h-2.05v-4H569zM481.8 964.9h-2.04v-4h2.05z" fill="#0c7cba"/><path d="M53.52 965H5v-10h48.52zM235 965h-48.52v-10H235z" fill="#ef8d22"/><path d="M5.13 965H0v-10h5.13zM240 965h-5.13v-10H240z" fill="#ef8d22"/><use xlink:href="#ai" transform="matrix(1,0,0,1,53.518518518518505,944) translate(0 21.333333333333336)"/><path d="M410 660h60v40h-60z" stroke="#000" stroke-width="2" fill="#e5e5e5"/><use xlink:href="#aj" transform="matrix(1,0,0,1,415.00000000000034,665) translate(0.04999999999999716 18.15)"/><path d="M355 660h60v40h-60z" stroke="#000" stroke-width="2" fill="#e5e5e5"/><use xlink:href="#ak" transform="matrix(1,0,0,1,360,665) translate(0.04999999999999716 18.15)"/><path d="M470 660h60v40h-60z" stroke="#000" stroke-width="2" fill="#e5e5e5"/><use xlink:href="#al" transform="matrix(1,0,0,1,475.00000000000034,665) translate(0.04999999999999716 18.15)"/><path d="M295 660h60v40h-60z" stroke="#000" stroke-width="2" fill="#e5e5e5"/><use xlink:href="#am" transform="matrix(1,0,0,1,300,665) translate(0.04999999999999716 18.15)"/><path d="M1144.07 613.03l2.9 2.9.56 2.07h38.16v4h-41.23l-1.08-4-1.4-1.4-2-.53-2 .54-1.4 1.4-1.07 4h-42.16l-1.08-4-1.4-1.4-2-.53-2 .54-1.4 1.4-1.07 4h-59.96l-1.08-4-1.4-1.4-2-.53-2 .54-1.4 1.4-1.07 4H822v35h-4v-39h194.47l.56-2.07 2.9-2.9 4.07-1.1 4.07 1.1 2.9 2.9.56 2.07h53.84l.56-2.07 2.9-2.9 4.07-1.1 4.07 1.1 2.9 2.9.56 2.07h36.04l.56-2.07 2.9-2.9 4.07-1.1zM1368 437h-30v185h-49.16v-4H1334V433h34z" fill="#fcc438"/><path d="M822 659h-4v-2.05h4zM1373 437h-.76v-4h.76zm-3 0h-2.05v-4h2.05z" fill="#fcc438"/><use xlink:href="#an" transform="matrix(1,0,0,1,1185.6914406284848,606.6666666666666) translate(0 17.77777777777778)"/><path d="M1200 702.5V1000h-58.5" fill="none"/><path d="M1200 702.5v2.97m0 11.86v5.94m0 11.86v5.94m0 11.86v5.94m0 11.86v5.94m0 11.86v5.94m0 11.86v5.94m0 11.86v5.94m0 11.86v5.94m0 11.86v5.94m0 11.86v5.94m0 11.86v5.94m0 11.86v5.94m0 11.86v5.94m0 11.86v5.94m0 11.86v5.94m0 11.86v5.94m-2.13 9.73h-5.94m-11.86 0h-5.94m-11.86 0h-5.94m-11.86 0h-2.97" stroke="#000" stroke-width="3" fill="none"/><path d="M1201.5 702.54h-3V701h3z"/><path d="M1141.54 1000H1140" stroke="#000" stroke-width="3" fill="none"/><path d="M610 700h240v60H610z" stroke="#000" stroke-opacity="0" stroke-width="2" fill="#fff" fill-opacity="0"/><use xlink:href="#ao" transform="matrix(1,0,0,1,615,705) translate(96.7 30.025)"/><path d="M990 700h240v60H990z" stroke="#000" stroke-opacity="0" stroke-width="2" fill="#fff" fill-opacity="0"/><g><use xlink:href="#ap" transform="matrix(1,0,0,1,995.0000000000005,705) translate(76.75 30.025)"/></g><defs><path d="M106-169C34-169 62-67 57 0H25v-261h32l-1 103c12-21 28-36 61-36 89 0 53 116 60 194h-32v-121c2-32-8-49-39-48" id="aq"/><path d="M100-194c62-1 85 37 85 99 1 63-27 99-86 99S16-35 15-95c0-66 28-99 85-99zM99-20c44 1 53-31 53-75 0-43-8-75-51-75s-53 32-53 75 10 74 51 75" id="ar"/><path d="M135-143c-3-34-86-38-87 0 15 53 115 12 119 90S17 21 10-45l28-5c4 36 97 45 98 0-10-56-113-15-118-90-4-57 82-63 122-42 12 7 21 19 24 35" id="as"/><path d="M59-47c-2 24 18 29 38 22v24C64 9 27 4 27-40v-127H5v-23h24l9-43h21v43h35v23H59v120" id="at"/><g id="a"><use transform="matrix(0.1111111111111111,0,0,0.1111111111111111,0,0)" xlink:href="#aq"/><use transform="matrix(0.1111111111111111,0,0,0.1111111111111111,22.22222222222222,0)" xlink:href="#ar"/><use transform="matrix(0.1111111111111111,0,0,0.1111111111111111,44.44444444444444,0)" xlink:href="#as"/><use transform="matrix(0.1111111111111111,0,0,0.1111111111111111,64.44444444444444,0)" xlink:href="#at"/></g><path d="M87 75C49 33 22-17 22-94c0-76 28-126 65-167h31c-38 41-64 92-64 168S80 34 118 75H87" id="au"/><path d="M114-163C36-179 61-72 57 0H25l-1-190h30c1 12-1 29 2 39 6-27 23-49 58-41v29" id="av"/><path d="M108 0H70L1-190h34L89-25l56-165h34" id="aw"/><path d="M16-82v-28h88v28H16" id="ax"/><path d="M85-194c31 0 48 13 60 33l-1-100h32l1 261h-30c-2-10 0-23-3-31C134-8 116 4 85 4 32 4 16-35 15-94c0-66 23-100 70-100zm9 24c-40 0-46 34-46 75 0 40 6 74 45 74 42 0 51-32 51-76 0-42-9-74-50-73" id="ay"/><path d="M100-194c63 0 86 42 84 106H49c0 40 14 67 53 68 26 1 43-12 49-29l28 8c-11 28-37 45-77 45C44 4 14-33 15-96c1-61 26-98 85-98zm52 81c6-60-76-77-97-28-3 7-6 17-6 28h103" id="az"/><path d="M210-169c-67 3-38 105-44 169h-31v-121c0-29-5-50-35-48C34-165 62-65 56 0H25l-1-190h30c1 10-1 24 2 32 10-44 99-50 107 0 11-21 27-35 58-36 85-2 47 119 55 194h-31v-121c0-29-5-49-35-48" id="aA"/><path d="M33-261c38 41 65 92 65 168S71 34 33 75H2C39 34 66-17 66-93S39-220 2-261h31" id="aB"/><g id="b"><use transform="matrix(0.1111111111111111,0,0,0.1111111111111111,0,0)" xlink:href="#au"/><use transform="matrix(0.1111111111111111,0,0,0.1111111111111111,13.222222222222221,0)" xlink:href="#as"/><use transform="matrix(0.1111111111111111,0,0,0.1111111111111111,33.22222222222222,0)" xlink:href="#av"/><use transform="matrix(0.1111111111111111,0,0,0.1111111111111111,46.44444444444444,0)" xlink:href="#aw"/><use transform="matrix(0.1111111111111111,0,0,0.1111111111111111,66.44444444444444,0)" xlink:href="#ax"/><use transform="matrix(0.1111111111111111,0,0,0.1111111111111111,79.66666666666666,0)" xlink:href="#ay"/><use transform="matrix(0.1111111111111111,0,0,0.1111111111111111,101.88888888888889,0)" xlink:href="#az"/><use transform="matrix(0.1111111111111111,0,0,0.1111111111111111,124.1111111111111,0)" xlink:href="#aA"/><use transform="matrix(0.1111111111111111,0,0,0.1111111111111111,157.33333333333334,0)" xlink:href="#ar"/><use transform="matrix(0.1111111111111111,0,0,0.1111111111111111,179.55555555555557,0)" xlink:href="#aB"/></g><path d="M185-189c-5-48-123-54-124 2 14 75 158 14 163 119 3 78-121 87-175 55-17-10-28-26-33-46l33-7c5 56 141 63 141-1 0-78-155-14-162-118-5-82 145-84 179-34 5 7 8 16 11 25" id="aC"/><path d="M24-231v-30h32v30H24zM24 0v-190h32V0H24" id="aD"/><path d="M141-36C126-15 110 5 73 4 37 3 15-17 15-53c-1-64 63-63 125-63 3-35-9-54-41-54-24 1-41 7-42 31l-33-3c5-37 33-52 76-52 45 0 72 20 72 64v82c-1 20 7 32 28 27v20c-31 9-61-2-59-35zM48-53c0 20 12 33 32 33 41-3 63-29 60-74-43 2-92-5-92 41" id="aE"/><path d="M24 0v-261h32V0H24" id="aF"/><g id="d"><use transform="matrix(0.05,0,0,0.05,0,0)" xlink:href="#aC"/><use transform="matrix(0.05,0,0,0.05,12,0)" xlink:href="#az"/><use transform="matrix(0.05,0,0,0.05,22,0)" xlink:href="#av"/><use transform="matrix(0.05,0,0,0.05,27.950000000000003,0)" xlink:href="#aD"/><use transform="matrix(0.05,0,0,0.05,31.899999999999995,0)" xlink:href="#aE"/><use transform="matrix(0.05,0,0,0.05,41.9,0)" xlink:href="#aF"/></g><path d="M240 0l2-218c-23 76-54 145-80 218h-23L58-218 59 0H30v-248h44l77 211c21-75 51-140 76-211h43V0h-30" id="aG"/><path d="M143 4C61 4 22-44 18-125c-5-107 100-154 193-111 17 8 29 25 37 43l-32 9c-13-25-37-40-76-40-61 0-88 39-88 99 0 61 29 100 91 101 35 0 62-11 79-27v-45h-74v-28h105v86C228-13 192 4 143 4" id="aH"/><path d="M127-220V0H93v-220H8v-28h204v28h-85" id="aI"/><g id="e"><use transform="matrix(0.05,0,0,0.05,0,0)" xlink:href="#aG"/><use transform="matrix(0.05,0,0,0.05,14.950000000000001,0)" xlink:href="#aH"/><use transform="matrix(0.05,0,0,0.05,28.950000000000003,0)" xlink:href="#aI"/></g><path d="M27 0v-27h64v-190l-56 39v-29l58-41h29v221h61V0H27" id="aJ"/><use transform="matrix(0.05,0,0,0.05,0,0)" xlink:href="#aJ" id="f"/><path d="M101-251c82-7 93 87 43 132L82-64C71-53 59-42 53-27h129V0H18c2-99 128-94 128-182 0-28-16-43-45-43s-46 15-49 41l-32-3c6-41 34-60 81-64" id="aK"/><use transform="matrix(0.05,0,0,0.05,0,0)" xlink:href="#aK" id="g"/><path d="M73 0l105-211L283 0H73" id="aL"/><path d="M283-206L178 5 73-206h210" id="aM"/><g id="h"><use transform="matrix(0.03703703703703704,0,0,0.03703703703703704,0,0)" xlink:href="#aL"/><use transform="matrix(0.03703703703703704,0,0,0.03703703703703704,13.185185185185187,0)" xlink:href="#aM"/><use transform="matrix(0.03703703703703704,0,0,0.03703703703703704,26.370370370370374,0)" xlink:href="#aL"/><use transform="matrix(0.03703703703703704,0,0,0.03703703703703704,39.555555555555564,0)" xlink:href="#aM"/></g><path d="M126-127c33 6 58 20 58 59 0 88-139 92-164 29-3-8-5-16-6-25l32-3c6 27 21 44 54 44 32 0 52-15 52-46 0-38-36-46-79-43v-28c39 1 72-4 72-42 0-27-17-43-46-43-28 0-47 15-49 41l-32-3c6-42 35-63 81-64 48-1 79 21 79 65 0 36-21 52-52 59" id="aN"/><use transform="matrix(0.05,0,0,0.05,0,0)" xlink:href="#aN" id="i"/><path d="M155-56V0h-30v-56H8v-25l114-167h33v167h35v25h-35zm-30-156c-27 46-58 90-88 131h88v-131" id="aO"/><use transform="matrix(0.05,0,0,0.05,0,0)" xlink:href="#aO" id="j"/><path d="M115-194c55 1 70 41 70 98S169 2 115 4C84 4 66-9 55-30l1 105H24l-1-265h31l2 30c10-21 28-34 59-34zm-8 174c40 0 45-34 45-75s-6-73-45-74c-42 0-51 32-51 76 0 43 10 73 51 73" id="aP"/><path d="M115-194c53 0 69 39 70 98 0 66-23 100-70 100C84 3 66-7 56-30L54 0H23l1-261h32v101c10-23 28-34 59-34zm-8 174c40 0 45-34 45-75 0-40-5-75-45-74-42 0-51 32-51 76 0 43 10 73 51 73" id="aQ"/><path d="M96-169c-40 0-48 33-48 73s9 75 48 75c24 0 41-14 43-38l32 2c-6 37-31 61-74 61-59 0-76-41-82-99-10-93 101-131 147-64 4 7 5 14 7 22l-32 3c-4-21-16-35-41-35" id="aR"/><path d="M143 0L79-87 56-68V0H24v-261h32v163l83-92h37l-77 82L181 0h-38" id="aS"/><g id="k"><use transform="matrix(0.05,0,0,0.05,0,0)" xlink:href="#aF"/><use transform="matrix(0.05,0,0,0.05,3.95,0)" xlink:href="#ar"/><use transform="matrix(0.05,0,0,0.05,13.949999999999998,0)" xlink:href="#ar"/><use transform="matrix(0.05,0,0,0.05,23.95,0)" xlink:href="#aP"/><use transform="matrix(0.05,0,0,0.05,33.95,0)" xlink:href="#aQ"/><use transform="matrix(0.05,0,0,0.05,43.95,0)" xlink:href="#aE"/><use transform="matrix(0.05,0,0,0.05,53.95,0)" xlink:href="#aR"/><use transform="matrix(0.05,0,0,0.05,62.95,0)" xlink:href="#aS"/></g><path d="M266 0h-40l-56-210L115 0H75L2-248h35L96-30l15-64 43-154h32l59 218 59-218h35" id="aT"/><path d="M160-131c35 5 61 23 61 61C221 17 115-2 30 0v-248c76 3 177-17 177 60 0 33-19 50-47 57zm-97-11c50-1 110 9 110-42 0-47-63-36-110-37v79zm0 115c55-2 124 14 124-45 0-56-70-42-124-44v89" id="aU"/><path d="M54-142c48-35 137-8 131 61C196 18 31 33 14-55l32-4c7 23 22 37 52 37 35-1 51-22 54-58 4-55-73-65-99-34H22l8-134h141v27H59" id="aV"/><g id="l"><use transform="matrix(0.06172839506172839,0,0,0.06172839506172839,0,0)" xlink:href="#aT"/><use transform="matrix(0.06172839506172839,0,0,0.06172839506172839,20.925925925925924,0)" xlink:href="#aU"/><use transform="matrix(0.06172839506172839,0,0,0.06172839506172839,35.74074074074073,0)" xlink:href="#aV"/><use transform="matrix(0.06172839506172839,0,0,0.06172839506172839,48.08641975308641,0)" xlink:href="#aJ"/><use transform="matrix(0.06172839506172839,0,0,0.06172839506172839,60.43209876543209,0)" xlink:href="#aN"/><use transform="matrix(0.06172839506172839,0,0,0.06172839506172839,72.77777777777777,0)" xlink:href="#aK"/></g><use transform="matrix(0.05,0,0,0.05,0,0)" xlink:href="#aV" id="m"/><path d="M110-160c48 1 74 30 74 79 0 53-28 85-80 85-65 0-83-55-86-122-5-90 50-162 133-122 14 7 22 21 27 39l-31 6c-5-40-67-38-82-6-9 19-15 44-15 74 11-20 30-34 60-33zm-7 138c34 0 49-23 49-58s-16-56-50-56c-29 0-50 16-49 49 1 36 15 65 50 65" id="aW"/><use transform="matrix(0.05,0,0,0.05,0,0)" xlink:href="#aW" id="n"/><path d="M64 0c3-98 48-159 88-221H18v-27h164v26C143-157 98-101 97 0H64" id="aX"/><use transform="matrix(0.05,0,0,0.05,0,0)" xlink:href="#aX" id="o"/><path d="M134-131c28 9 52 24 51 62-1 50-34 73-85 73S17-19 16-69c0-36 21-54 49-61-75-25-45-126 34-121 46 3 78 18 79 63 0 33-17 51-44 57zm-34-11c31 1 46-15 46-44 0-28-17-43-47-42-29 0-46 13-45 42 1 28 16 44 46 44zm1 122c35 0 51-18 51-52 0-30-18-46-53-46-33 0-51 17-51 47 0 34 19 51 53 51" id="aY"/><use transform="matrix(0.05,0,0,0.05,0,0)" xlink:href="#aY" id="p"/><path d="M99-251c64 0 84 50 84 122C183-37 130 33 47-8c-14-7-20-23-25-40l30-5c6 39 69 39 84 7 9-19 16-44 16-74-10 22-31 35-62 35-49 0-73-33-73-83 0-54 28-83 82-83zm-1 141c31-1 51-18 51-49 0-36-14-67-51-67-34 0-49 23-49 58 0 34 15 58 49 58" id="aZ"/><use transform="matrix(0.05,0,0,0.05,0,0)" xlink:href="#aZ" id="q"/><path d="M101-251c68 0 85 55 85 127S166 4 100 4C33 4 14-52 14-124c0-73 17-127 87-127zm-1 229c47 0 54-49 54-102s-4-102-53-102c-51 0-55 48-55 102 0 53 5 102 54 102" id="ba"/><g id="r"><use transform="matrix(0.05,0,0,0.05,0,0)" xlink:href="#aJ"/><use transform="matrix(0.05,0,0,0.05,10,0)" xlink:href="#ba"/></g><g id="s"><use transform="matrix(0.05,0,0,0.05,0,0)" xlink:href="#aJ"/><use transform="matrix(0.05,0,0,0.05,8.65,0)" xlink:href="#aJ"/></g><g id="t"><use transform="matrix(0.05,0,0,0.05,0,0)" xlink:href="#aJ"/><use transform="matrix(0.05,0,0,0.05,10,0)" xlink:href="#aK"/></g><g id="u"><use transform="matrix(0.05,0,0,0.05,0,0)" xlink:href="#aJ"/><use transform="matrix(0.05,0,0,0.05,10,0)" xlink:href="#aN"/></g><g id="v"><use transform="matrix(0.05,0,0,0.05,0,0)" xlink:href="#aJ"/><use transform="matrix(0.05,0,0,0.05,10,0)" xlink:href="#aO"/></g><g id="w"><use transform="matrix(0.05,0,0,0.05,0,0)" xlink:href="#aJ"/><use transform="matrix(0.05,0,0,0.05,10,0)" xlink:href="#aV"/></g><g id="x"><use transform="matrix(0.05,0,0,0.05,0,0)" xlink:href="#aJ"/><use transform="matrix(0.05,0,0,0.05,10,0)" xlink:href="#aW"/></g><g id="y"><use transform="matrix(0.05,0,0,0.05,0,0)" xlink:href="#aJ"/><use transform="matrix(0.05,0,0,0.05,10,0)" xlink:href="#aX"/></g><g id="z"><use transform="matrix(0.05,0,0,0.05,0,0)" xlink:href="#aJ"/><use transform="matrix(0.05,0,0,0.05,10,0)" xlink:href="#aY"/></g><g id="A"><use transform="matrix(0.05,0,0,0.05,0,0)" xlink:href="#aJ"/><use transform="matrix(0.05,0,0,0.05,10,0)" xlink:href="#aZ"/></g><g id="B"><use transform="matrix(0.05,0,0,0.05,0,0)" xlink:href="#aK"/><use transform="matrix(0.05,0,0,0.05,10,0)" xlink:href="#ba"/></g><g id="C"><use transform="matrix(0.05,0,0,0.05,0,0)" xlink:href="#aK"/><use transform="matrix(0.05,0,0,0.05,10,0)" xlink:href="#aJ"/></g><g id="D"><use transform="matrix(0.05,0,0,0.05,0,0)" xlink:href="#aK"/><use transform="matrix(0.05,0,0,0.05,10,0)" xlink:href="#aK"/></g><g id="E"><use transform="matrix(0.05,0,0,0.05,0,0)" xlink:href="#aK"/><use transform="matrix(0.05,0,0,0.05,10,0)" xlink:href="#aN"/></g><g id="F"><use transform="matrix(0.05,0,0,0.05,0,0)" xlink:href="#aK"/><use transform="matrix(0.05,0,0,0.05,10,0)" xlink:href="#aO"/></g><g id="G"><use transform="matrix(0.05,0,0,0.05,0,0)" xlink:href="#aK"/><use transform="matrix(0.05,0,0,0.05,10,0)" xlink:href="#aV"/></g><g id="H"><use transform="matrix(0.05,0,0,0.05,0,0)" xlink:href="#aK"/><use transform="matrix(0.05,0,0,0.05,10,0)" xlink:href="#aW"/></g><g id="I"><use transform="matrix(0.05,0,0,0.05,0,0)" xlink:href="#aK"/><use transform="matrix(0.05,0,0,0.05,10,0)" xlink:href="#aX"/></g><g id="J"><use transform="matrix(0.05,0,0,0.05,0,0)" xlink:href="#aK"/><use transform="matrix(0.05,0,0,0.05,10,0)" xlink:href="#aY"/></g><g id="K"><use transform="matrix(0.05,0,0,0.05,0,0)" xlink:href="#aK"/><use transform="matrix(0.05,0,0,0.05,10,0)" xlink:href="#aZ"/></g><g id="L"><use transform="matrix(0.05,0,0,0.05,0,0)" xlink:href="#aN"/><use transform="matrix(0.05,0,0,0.05,10,0)" xlink:href="#ba"/></g><g id="M"><use transform="matrix(0.05,0,0,0.05,0,0)" xlink:href="#aN"/><use transform="matrix(0.05,0,0,0.05,10,0)" xlink:href="#aJ"/></g><g id="N"><use transform="matrix(0.05,0,0,0.05,0,0)" xlink:href="#aN"/><use transform="matrix(0.05,0,0,0.05,10,0)" xlink:href="#aK"/></g><path d="M30 0v-248h33v221h125V0H30" id="bb"/><g id="O"><use transform="matrix(0.05,0,0,0.05,0,0)" xlink:href="#bb"/><use transform="matrix(0.05,0,0,0.05,10,0)" xlink:href="#aE"/><use transform="matrix(0.05,0,0,0.05,20,0)" xlink:href="#aP"/><use transform="matrix(0.05,0,0,0.05,30,0)" xlink:href="#at"/><use transform="matrix(0.05,0,0,0.05,35,0)" xlink:href="#ar"/><use transform="matrix(0.05,0,0,0.05,45,0)" xlink:href="#aP"/></g><path d="M30-248c118-7 216 8 213 122C240-48 200 0 122 0H30v-248zM63-27c89 8 146-16 146-99s-60-101-146-95v194" id="bc"/><g id="P"><use transform="matrix(0.05,0,0,0.05,0,0)" xlink:href="#bc"/><use transform="matrix(0.05,0,0,0.05,12.950000000000001,0)" xlink:href="#az"/><use transform="matrix(0.05,0,0,0.05,22.950000000000003,0)" xlink:href="#aw"/><use transform="matrix(0.05,0,0,0.05,31.950000000000003,0)" xlink:href="#aD"/><use transform="matrix(0.05,0,0,0.05,35.900000000000006,0)" xlink:href="#aR"/><use transform="matrix(0.05,0,0,0.05,44.900000000000006,0)" xlink:href="#az"/></g><path d="M212-179c-10-28-35-45-73-45-59 0-87 40-87 99 0 60 29 101 89 101 43 0 62-24 78-52l27 14C228-24 195 4 139 4 59 4 22-46 18-125c-6-104 99-153 187-111 19 9 31 26 39 46" id="bd"/><path d="M179-190L93 31C79 59 56 82 12 73V49c39 6 53-20 64-50L1-190h34L92-34l54-156h33" id="be"/><g id="Q"><use transform="matrix(0.05,0,0,0.05,0,0)" xlink:href="#bd"/><use transform="matrix(0.05,0,0,0.05,12.950000000000001,0)" xlink:href="#be"/><use transform="matrix(0.05,0,0,0.05,21.950000000000003,0)" xlink:href="#aQ"/><use transform="matrix(0.05,0,0,0.05,31.950000000000003,0)" xlink:href="#az"/><use transform="matrix(0.05,0,0,0.05,41.95,0)" xlink:href="#av"/><use transform="matrix(0.05,0,0,0.05,47.900000000000006,0)" xlink:href="#aA"/><use transform="matrix(0.05,0,0,0.05,62.85,0)" xlink:href="#aE"/><use transform="matrix(0.05,0,0,0.05,72.85000000000001,0)" xlink:href="#aP"/><use transform="matrix(0.05,0,0,0.05,82.85000000000001,0)" xlink:href="#aP"/><use transform="matrix(0.05,0,0,0.05,92.85000000000001,0)" xlink:href="#az"/><use transform="matrix(0.05,0,0,0.05,102.85000000000001,0)" xlink:href="#av"/></g><path d="M24 0v-248h52V0H24" id="bf"/><path d="M135-194c87-1 58 113 63 194h-50c-7-57 23-157-34-157-59 0-34 97-39 157H25l-1-190h47c2 12-1 28 3 38 12-26 28-41 61-42" id="bg"/><path d="M195-6C206 82 75 100 31 46c-4-6-6-13-8-21l49-6c3 16 16 24 34 25 40 0 42-37 40-79-11 22-30 35-61 35-53 0-70-43-70-97 0-56 18-96 73-97 30 0 46 14 59 34l2-30h47zm-90-29c32 0 41-27 41-63 0-35-9-62-40-62-32 0-39 29-40 63 0 36 9 62 39 62" id="bh"/><path d="M135-150c-39-12-60 13-60 57V0H25l-1-190h47c2 13-1 29 3 40 6-28 27-53 61-41v41" id="bi"/><path d="M185-48c-13 30-37 53-82 52C43 2 14-33 14-96s30-98 90-98c62 0 83 45 84 108H66c0 31 8 55 39 56 18 0 30-7 34-22zm-45-69c5-46-57-63-70-21-2 6-4 13-4 21h74" id="bj"/><path d="M137-138c1-29-70-34-71-4 15 46 118 7 119 86 1 83-164 76-172 9l43-7c4 19 20 25 44 25 33 8 57-30 24-41C81-84 22-81 20-136c-2-80 154-74 161-7" id="bk"/><g id="R"><use transform="matrix(0.06790123456790124,0,0,0.06790123456790124,0,0)" xlink:href="#bf"/><use transform="matrix(0.06790123456790124,0,0,0.06790123456790124,6.790123456790124,0)" xlink:href="#bg"/><use transform="matrix(0.06790123456790124,0,0,0.06790123456790124,21.660493827160497,0)" xlink:href="#bh"/><use transform="matrix(0.06790123456790124,0,0,0.06790123456790124,36.53086419753087,0)" xlink:href="#bi"/><use transform="matrix(0.06790123456790124,0,0,0.06790123456790124,46.03703703703704,0)" xlink:href="#bj"/><use transform="matrix(0.06790123456790124,0,0,0.06790123456790124,59.617283950617285,0)" xlink:href="#bk"/><use transform="matrix(0.06790123456790124,0,0,0.06790123456790124,73.19753086419753,0)" xlink:href="#bk"/></g><path d="M24 0v-248h195v40H76v63h132v40H76v65h150V0H24" id="bl"/><g id="S"><use transform="matrix(0.06172839506172839,0,0,0.06172839506172839,0,0)" xlink:href="#bl"/><use transform="matrix(0.06172839506172839,0,0,0.06172839506172839,14.814814814814813,0)" xlink:href="#bh"/><use transform="matrix(0.06172839506172839,0,0,0.06172839506172839,28.33333333333333,0)" xlink:href="#bi"/><use transform="matrix(0.06172839506172839,0,0,0.06172839506172839,36.9753086419753,0)" xlink:href="#bj"/><use transform="matrix(0.06172839506172839,0,0,0.06172839506172839,49.32098765432098,0)" xlink:href="#bk"/><use transform="matrix(0.06172839506172839,0,0,0.06172839506172839,61.66666666666666,0)" xlink:href="#bk"/></g><g id="T"><use transform="matrix(0.05,0,0,0.05,0,0)" xlink:href="#aF"/><use transform="matrix(0.05,0,0,0.05,3.95,0)" xlink:href="#at"/><use transform="matrix(0.05,0,0,0.05,8.95,0)" xlink:href="#ax"/><use transform="matrix(0.05,0,0,0.05,14.899999999999999,0)" xlink:href="#ay"/><use transform="matrix(0.05,0,0,0.05,24.9,0)" xlink:href="#as"/><use transform="matrix(0.05,0,0,0.05,33.9,0)" xlink:href="#at"/></g><g id="U"><use transform="matrix(0.05,0,0,0.05,0,0)" xlink:href="#aF"/><use transform="matrix(0.05,0,0,0.05,3.95,0)" xlink:href="#at"/><use transform="matrix(0.05,0,0,0.05,8.95,0)" xlink:href="#ax"/><use transform="matrix(0.05,0,0,0.05,14.899999999999999,0)" xlink:href="#as"/><use transform="matrix(0.05,0,0,0.05,23.9,0)" xlink:href="#av"/><use transform="matrix(0.05,0,0,0.05,29.849999999999994,0)" xlink:href="#aR"/></g><path d="M101-234c-31-9-42 10-38 44h38v23H63V0H32v-167H5v-23h27c-7-52 17-82 69-68v24" id="bm"/><path d="M117-194c89-4 53 116 60 194h-32v-121c0-31-8-49-39-48C34-167 62-67 57 0H25l-1-190h30c1 10-1 24 2 32 11-22 29-35 61-36" id="bn"/><g id="V"><use transform="matrix(0.05,0,0,0.05,0,0)" xlink:href="#bm"/><use transform="matrix(0.05,0,0,0.05,5,0)" xlink:href="#ar"/><use transform="matrix(0.05,0,0,0.05,15,0)" xlink:href="#av"/><use transform="matrix(0.05,0,0,0.05,20.95,0)" xlink:href="#at"/><use transform="matrix(0.05,0,0,0.05,25.950000000000003,0)" xlink:href="#aD"/><use transform="matrix(0.05,0,0,0.05,29.899999999999995,0)" xlink:href="#bn"/><use transform="matrix(0.05,0,0,0.05,39.9,0)" xlink:href="#az"/><use transform="matrix(0.05,0,0,0.05,49.9,0)" xlink:href="#at"/><use transform="matrix(0.05,0,0,0.05,54.900000000000006,0)" xlink:href="#ax"/><use transform="matrix(0.05,0,0,0.05,60.85,0)" xlink:href="#aJ"/></g><g id="W"><use transform="matrix(0.05,0,0,0.05,0,0)" xlink:href="#bm"/><use transform="matrix(0.05,0,0,0.05,5,0)" xlink:href="#ar"/><use transform="matrix(0.05,0,0,0.05,15,0)" xlink:href="#av"/><use transform="matrix(0.05,0,0,0.05,20.95,0)" xlink:href="#at"/><use transform="matrix(0.05,0,0,0.05,25.950000000000003,0)" xlink:href="#aD"/><use transform="matrix(0.05,0,0,0.05,29.899999999999995,0)" xlink:href="#bn"/><use transform="matrix(0.05,0,0,0.05,39.9,0)" xlink:href="#az"/><use transform="matrix(0.05,0,0,0.05,49.9,0)" xlink:href="#at"/><use transform="matrix(0.05,0,0,0.05,54.900000000000006,0)" xlink:href="#ax"/><use transform="matrix(0.05,0,0,0.05,60.85,0)" xlink:href="#aK"/></g><path d="M33 0v-248h34V0H33" id="bo"/><path d="M190 0L58-211 59 0H30v-248h39L202-35l-2-213h31V0h-41" id="bp"/><g id="X"><use transform="matrix(0.05,0,0,0.05,0,0)" xlink:href="#bo"/><use transform="matrix(0.05,0,0,0.05,5,0)" xlink:href="#bp"/><use transform="matrix(0.05,0,0,0.05,17.950000000000003,0)" xlink:href="#aJ"/></g><g id="Y"><use transform="matrix(0.05,0,0,0.05,0,0)" xlink:href="#bo"/><use transform="matrix(0.05,0,0,0.05,5,0)" xlink:href="#bp"/><use transform="matrix(0.05,0,0,0.05,17.950000000000003,0)" xlink:href="#aK"/></g><g id="Z"><use transform="matrix(0.05,0,0,0.05,0,0)" xlink:href="#bo"/><use transform="matrix(0.05,0,0,0.05,5,0)" xlink:href="#bp"/><use transform="matrix(0.05,0,0,0.05,17.950000000000003,0)" xlink:href="#aN"/></g><g id="aa"><use transform="matrix(0.05,0,0,0.05,0,0)" xlink:href="#bo"/><use transform="matrix(0.05,0,0,0.05,5,0)" xlink:href="#bp"/><use transform="matrix(0.05,0,0,0.05,17.950000000000003,0)" xlink:href="#aO"/></g><path d="M140-251c81 0 123 46 123 126C263-46 219 4 140 4 59 4 17-45 17-125s42-126 123-126zm0 227c63 0 89-41 89-101s-29-99-89-99c-61 0-89 39-89 99S79-25 140-24" id="bq"/><path d="M232-93c-1 65-40 97-104 97C67 4 28-28 28-90v-158h33c8 89-33 224 67 224 102 0 64-133 71-224h33v155" id="br"/><g id="ab"><use transform="matrix(0.05,0,0,0.05,0,0)" xlink:href="#bq"/><use transform="matrix(0.05,0,0,0.05,14,0)" xlink:href="#br"/><use transform="matrix(0.05,0,0,0.05,26.950000000000003,0)" xlink:href="#aI"/><use transform="matrix(0.05,0,0,0.05,37.900000000000006,0)" xlink:href="#aJ"/></g><g id="ac"><use transform="matrix(0.05,0,0,0.05,0,0)" xlink:href="#bq"/><use transform="matrix(0.05,0,0,0.05,14,0)" xlink:href="#br"/><use transform="matrix(0.05,0,0,0.05,26.950000000000003,0)" xlink:href="#aI"/><use transform="matrix(0.05,0,0,0.05,37.900000000000006,0)" xlink:href="#aK"/></g><g id="ad"><use transform="matrix(0.05,0,0,0.05,0,0)" xlink:href="#bq"/><use transform="matrix(0.05,0,0,0.05,14,0)" xlink:href="#br"/><use transform="matrix(0.05,0,0,0.05,26.950000000000003,0)" xlink:href="#aI"/><use transform="matrix(0.05,0,0,0.05,37.900000000000006,0)" xlink:href="#aN"/></g><g id="ae"><use transform="matrix(0.05,0,0,0.05,0,0)" xlink:href="#bq"/><use transform="matrix(0.05,0,0,0.05,14,0)" xlink:href="#br"/><use transform="matrix(0.05,0,0,0.05,26.950000000000003,0)" xlink:href="#aI"/><use transform="matrix(0.05,0,0,0.05,37.900000000000006,0)" xlink:href="#aO"/></g><path d="M230 0l2-204L168 0h-37L68-204 70 0H24v-248h70l56 185 57-185h69V0h-46" id="bs"/><path d="M133-34C117-15 103 5 69 4 32 3 11-16 11-54c-1-60 55-63 116-61 1-26-3-47-28-47-18 1-26 9-28 27l-52-2c7-38 36-58 82-57s74 22 75 68l1 82c-1 14 12 18 25 15v27c-30 8-71 5-69-32zm-48 3c29 0 43-24 42-57-32 0-66-3-65 30 0 17 8 27 23 27" id="bt"/><path d="M220-157c-53 9-28 100-34 157h-49v-107c1-27-5-49-29-50C55-147 81-57 75 0H25l-1-190h47c2 12-1 28 3 38 10-53 101-56 108 0 13-22 24-43 59-42 82 1 51 116 57 194h-49v-107c-1-25-5-48-29-50" id="bu"/><path d="M115-3C79 11 28 4 28-45v-112H4v-33h27l15-45h31v45h36v33H77v99c-1 23 16 31 38 25v30" id="bv"/><g id="af"><use transform="matrix(0.05555555555555555,0,0,0.05555555555555555,0,0)" xlink:href="#bs"/><use transform="matrix(0.05555555555555555,0,0,0.05555555555555555,16.61111111111111,0)" xlink:href="#bt"/><use transform="matrix(0.05555555555555555,0,0,0.05555555555555555,27.72222222222222,0)" xlink:href="#bg"/><use transform="matrix(0.05555555555555555,0,0,0.05555555555555555,39.888888888888886,0)" xlink:href="#bt"/><use transform="matrix(0.05555555555555555,0,0,0.05555555555555555,51,0)" xlink:href="#bh"/><use transform="matrix(0.05555555555555555,0,0,0.05555555555555555,63.166666666666664,0)" xlink:href="#bj"/><use transform="matrix(0.05555555555555555,0,0,0.05555555555555555,74.27777777777777,0)" xlink:href="#bu"/><use transform="matrix(0.05555555555555555,0,0,0.05555555555555555,92.05555555555554,0)" xlink:href="#bj"/><use transform="matrix(0.05555555555555555,0,0,0.05555555555555555,103.16666666666666,0)" xlink:href="#bg"/><use transform="matrix(0.05555555555555555,0,0,0.05555555555555555,115.33333333333333,0)" xlink:href="#bv"/></g><path d="M182-130c37 4 62 22 62 59C244 23 116-4 24 0v-248c84 5 203-23 205 63 0 31-19 50-47 55zM76-148c40-3 101 13 101-30 0-44-60-28-101-31v61zm0 110c48-3 116 14 116-37 0-48-69-32-116-35v72" id="bw"/><path d="M25-224v-37h50v37H25zM25 0v-190h50V0H25" id="bx"/><path d="M88-194c31-1 46 15 58 34l-1-101h50l1 261h-48c-2-10 0-23-3-31C134-8 116 4 84 4 32 4 16-41 15-95c0-56 19-97 73-99zm17 164c33 0 40-30 41-66 1-37-9-64-41-64s-38 30-39 65c0 43 13 65 39 65" id="by"/><g id="ag"><use transform="matrix(0.05555555555555555,0,0,0.05555555555555555,0,0)" xlink:href="#bw"/><use transform="matrix(0.05555555555555555,0,0,0.05555555555555555,14.388888888888888,0)" xlink:href="#bi"/><use transform="matrix(0.05555555555555555,0,0,0.05555555555555555,22.166666666666664,0)" xlink:href="#bx"/><use transform="matrix(0.05555555555555555,0,0,0.05555555555555555,27.72222222222222,0)" xlink:href="#by"/><use transform="matrix(0.05555555555555555,0,0,0.05555555555555555,39.888888888888886,0)" xlink:href="#bh"/><use transform="matrix(0.05555555555555555,0,0,0.05555555555555555,52.05555555555555,0)" xlink:href="#bj"/></g><path d="M240-174c0 40-23 61-54 70L253 0h-59l-57-94H76V0H24v-248c93 4 217-23 216 74zM76-134c48-2 112 12 112-38 0-48-66-32-112-35v73" id="bz"/><path d="M110-194c64 0 96 36 96 99 0 64-35 99-97 99-61 0-95-36-95-99 0-62 34-99 96-99zm-1 164c35 0 45-28 45-65 0-40-10-65-43-65-34 0-45 26-45 65 0 36 10 65 43 65" id="bA"/><path d="M85 4C-2 5 27-109 22-190h50c7 57-23 150 33 157 60-5 35-97 40-157h50l1 190h-47c-2-12 1-28-3-38-12 25-28 42-61 42" id="bB"/><g id="ah"><use transform="matrix(0.07407407407407408,0,0,0.07407407407407408,0,0)" xlink:href="#bz"/><use transform="matrix(0.07407407407407408,0,0,0.07407407407407408,19.185185185185187,0)" xlink:href="#bA"/><use transform="matrix(0.07407407407407408,0,0,0.07407407407407408,35.40740740740741,0)" xlink:href="#bB"/><use transform="matrix(0.07407407407407408,0,0,0.07407407407407408,51.62962962962963,0)" xlink:href="#bv"/><use transform="matrix(0.07407407407407408,0,0,0.07407407407407408,60.44444444444445,0)" xlink:href="#bj"/><use transform="matrix(0.07407407407407408,0,0,0.07407407407407408,75.25925925925927,0)" xlink:href="#bi"/></g><path d="M175 0L67-191c6 58 2 128 3 191H24v-248h59L193-55c-6-58-2-129-3-193h46V0h-61" id="bC"/><path d="M136-208V0H84v-208H4v-40h212v40h-80" id="bD"/><g id="ai"><use transform="matrix(0.07407407407407408,0,0,0.07407407407407408,0,0)" xlink:href="#bf"/><use transform="matrix(0.07407407407407408,0,0,0.07407407407407408,7.407407407407408,0)" xlink:href="#bC"/><use transform="matrix(0.07407407407407408,0,0,0.07407407407407408,26.592592592592595,0)" xlink:href="#bD"/><use transform="matrix(0.07407407407407408,0,0,0.07407407407407408,42.814814814814824,0)" xlink:href="#bl"/><use transform="matrix(0.07407407407407408,0,0,0.07407407407407408,60.5925925925926,0)" xlink:href="#bz"/><use transform="matrix(0.07407407407407408,0,0,0.07407407407407408,79.77777777777779,0)" xlink:href="#bC"/><use transform="matrix(0.07407407407407408,0,0,0.07407407407407408,98.96296296296298,0)" xlink:href="#bl"/><use transform="matrix(0.07407407407407408,0,0,0.07407407407407408,116.74074074074076,0)" xlink:href="#bD"/></g><g id="aj"><use transform="matrix(0.05,0,0,0.05,0,0)" xlink:href="#aG"/><use transform="matrix(0.05,0,0,0.05,14.950000000000001,0)" xlink:href="#aH"/><use transform="matrix(0.05,0,0,0.05,28.950000000000003,0)" xlink:href="#aI"/><use transform="matrix(0.05,0,0,0.05,39.900000000000006,0)" xlink:href="#aN"/></g><g id="ak"><use transform="matrix(0.05,0,0,0.05,0,0)" xlink:href="#aG"/><use transform="matrix(0.05,0,0,0.05,14.950000000000001,0)" xlink:href="#aH"/><use transform="matrix(0.05,0,0,0.05,28.950000000000003,0)" xlink:href="#aI"/><use transform="matrix(0.05,0,0,0.05,39.900000000000006,0)" xlink:href="#aK"/></g><g id="al"><use transform="matrix(0.05,0,0,0.05,0,0)" xlink:href="#aG"/><use transform="matrix(0.05,0,0,0.05,14.950000000000001,0)" xlink:href="#aH"/><use transform="matrix(0.05,0,0,0.05,28.950000000000003,0)" xlink:href="#aI"/><use transform="matrix(0.05,0,0,0.05,39.900000000000006,0)" xlink:href="#aO"/></g><g id="am"><use transform="matrix(0.05,0,0,0.05,0,0)" xlink:href="#aG"/><use transform="matrix(0.05,0,0,0.05,14.950000000000001,0)" xlink:href="#aH"/><use transform="matrix(0.05,0,0,0.05,28.950000000000003,0)" xlink:href="#aI"/><use transform="matrix(0.05,0,0,0.05,39.900000000000006,0)" xlink:href="#aJ"/></g><path d="M25 0v-261h50V0H25" id="bE"/><path d="M123 10C108 53 80 86 19 72V37c35 8 53-11 59-39L3-190h52l48 148c12-52 28-100 44-148h51" id="bF"/><g id="an"><use transform="matrix(0.06172839506172839,0,0,0.06172839506172839,0,0)" xlink:href="#bD"/><use transform="matrix(0.06172839506172839,0,0,0.06172839506172839,11.851851851851851,0)" xlink:href="#bj"/><use transform="matrix(0.06172839506172839,0,0,0.06172839506172839,24.19753086419753,0)" xlink:href="#bE"/><use transform="matrix(0.06172839506172839,0,0,0.06172839506172839,30.37037037037037,0)" xlink:href="#bj"/><use transform="matrix(0.06172839506172839,0,0,0.06172839506172839,42.71604938271605,0)" xlink:href="#bu"/><use transform="matrix(0.06172839506172839,0,0,0.06172839506172839,62.46913580246914,0)" xlink:href="#bj"/><use transform="matrix(0.06172839506172839,0,0,0.06172839506172839,74.81481481481482,0)" xlink:href="#bv"/><use transform="matrix(0.06172839506172839,0,0,0.06172839506172839,82.16049382716051,0)" xlink:href="#bi"/><use transform="matrix(0.06172839506172839,0,0,0.06172839506172839,90.80246913580248,0)" xlink:href="#bF"/></g><path d="M30-248c87 1 191-15 191 75 0 78-77 80-158 76V0H30v-248zm33 125c57 0 124 11 124-50 0-59-68-47-124-48v98" id="bG"/><g id="ao"><use transform="matrix(0.05,0,0,0.05,0,0)" xlink:href="#aI"/><use transform="matrix(0.05,0,0,0.05,10.600000000000001,0)" xlink:href="#bq"/><use transform="matrix(0.05,0,0,0.05,24.6,0)" xlink:href="#bG"/></g><g id="ap"><use transform="matrix(0.05,0,0,0.05,0,0)" xlink:href="#aU"/><use transform="matrix(0.05,0,0,0.05,12,0)" xlink:href="#bq"/><use transform="matrix(0.05,0,0,0.05,26,0)" xlink:href="#aI"/><use transform="matrix(0.05,0,0,0.05,36.95,0)" xlink:href="#aI"/><use transform="matrix(0.05,0,0,0.05,47.550000000000004,0)" xlink:href="#bq"/><use transform="matrix(0.05,0,0,0.05,61.550000000000004,0)" xlink:href="#aG"/></g></defs></g></svg>